<svg xmlns="http://www.w3.org/2000/svg" data-name="Layer 2" viewBox="0 0 42.69 8.4"><path fill="#fff" d="M3.15 3.93c-.96-.51-1.6-1.09-1.63-1.87-.04-.64.37-1.08 1.16-1.09.54 0 .96.25 1.21.66.26.43.35.99.24 1.6l.08.04 1.1-2.26C4.74.76 3.96.63 3.25.63 1.36.63.31 1.46.33 2.82c.01 1.08.75 1.74 1.95 2.39 1.16.6 1.79 1.07 1.79 1.84 0 .64-.43 1.03-1.18 1.03s-1.5-.47-1.86-1.17c-.2-.39-.31-.94-.31-1.43H.64L0 7.86c.7.39 1.76.54 2.57.54 1.79 0 2.84-.71 2.84-2.06 0-1.03-.72-1.56-2.26-2.4zm7.14 1.17c.07.15.11.32.12.59.02.97-.49 1.55-1.33 1.55-1.01 0-1.63-.82-1.79-2.33-.12-1.14.09-2.17.97-2.24.81-.11 1.54.96 1.3 2.01l.06.02.86-2.07c-.4-.19-1.18-.32-1.75-.32-1.67 0-2.71 1.11-2.71 3.02s.96 3.05 2.43 3.05c1.29 0 2.13-.91 2.13-2.34 0-.45-.08-.76-.2-.98l-.09.04zm6.11 1.85v-3c0-1.18-.64-1.67-1.78-1.67-1.2 0-1.92.58-1.92 1.61 0 .15.01.3.06.51l-.13.05c-.07-.19-.11-.46-.09-.78.02-.37.12-.81.37-1.12V1.31c-.01-.63.08-.99.34-1.23l-.02-.05-2.5.69v.06c.5-.02.79.46.79 1.29v4.89c0 .57-.38 1.23-.72 1.27v.06h2.82v-.06c-.34-.04-.72-.7-.72-1.27V4.3c0-.79.44-1.23 1.16-1.23.62 0 .97.34.97 1.16v2.74c0 .57-.38 1.23-.72 1.27v.06h2.82v-.06c-.34-.04-.72-.7-.72-1.27zm3.61-4.66c-1.8 0-2.64 1.25-2.64 3.07S18.21 8.4 20 8.4s2.64-1.25 2.64-3.07-.83-3.04-2.63-3.04zm.4 5.79c-.78.08-1.41-.95-1.55-2.44-.09-.98-.13-2.96.77-3.04.76-.07 1.4.97 1.53 2.49.08.97.12 2.91-.75 3zm5.42-1.78c.05.25.07.41.07.56 0 .43-.17.7-.51.7-.44 0-.54-.36-.54-.94V1.28c0-.63.04-.97.3-1.23L25.13 0l-2.4.69v.06c.5-.06.76.47.76 1.3v4.83c0 .89.35 1.52 1.31 1.52.83 0 1.24-.5 1.24-1.42 0-.24-.04-.4-.09-.7l-.11.02zm5.21.48V4.02c0-1.12-.72-1.74-2.07-1.74s-2.16.63-2.16 1.72c0 .32.06.64.17.84l.12-.05a1.31 1.31 0 0 1-.11-.52c0-.73.51-1.16 1.4-1.16s1.28.41 1.28 1.23v.62h-.86c-1.53 0-2.29.59-2.29 1.8 0 1.02.54 1.63 1.6 1.63s1.74-.63 1.74-1.68c0-.17-.01-.28-.06-.5l.13-.04c.05.15.11.51.09.88-.02.72-.15 1.1-.46 1.17v.05h2.16v-.06c-.41-.05-.68-.75-.68-1.43zm-1.37-.45c0 .81-.3 1.24-.96 1.24-.57 0-.86-.33-.86-1.11 0-.96.39-1.23 1.31-1.24h.51v1.11zm4.14-2.39c0 .15.01.31.06.52l-.13.04c-.05-.15-.09-.46-.09-.79 0-.65.17-1.23.44-1.52l-.02-.05-2.18.69v.06c.54-.02.75.66.75 1.3v2.76c0 .57-.38 1.23-.72 1.27v.06h2.82v-.06c-.34-.04-.72-.7-.72-1.27V4.77c0-.77.27-1.28 1.1-1.28.38 0 .64.14.78.41h.04V2.31h-.23c-1.24 0-1.88.56-1.88 1.62zm5.15.82c-.85-.46-1.27-.83-1.3-1.34-.02-.47.28-.79.79-.82h.05c.92 0 1.41.9 1.21 1.72l.06.02.88-1.74c-.63-.21-1.28-.32-1.85-.32-1.42 0-2.29.62-2.29 1.78.01.85.59 1.35 1.56 1.85.57.28 1.37.67 1.37 1.4 0 .52-.41.76-.89.77-.9.01-1.81-.84-1.73-2.04h-.07l-.53 1.89c.57.3 1.33.46 2.14.46 1.43 0 2.34-.54 2.34-1.71 0-1.1-.94-1.49-1.75-1.93zm3 2.17c-.4 0-.73.33-.73.73s.33.73.73.73.73-.33.73-.73-.33-.73-.73-.73z" data-name="Layer 1"/></svg>