<svg xmlns="http://www.w3.org/2000/svg" id="Layer_2" data-name="Layer 2" viewBox="0 0 38.08 14.98"><defs><style>.cls-1{fill:#fff}</style></defs><g id="Layer_1-2" data-name="Layer 1"><path d="M1.31 11.62c-.18.11-.36.23-.59.27-.07.02-.14.02-.18.02a.52.52 0 0 1-.54-.54v-.09c.04-.34.18-.63.38-.92.65-.97 1.44-1.8 2.41-2.46.2-.16.45-.29.72-.36.09-.02.18-.04.27-.04.31 0 .5.2.5.54 0 .07 0 .13-.02.23-.07.25-.18.47-.18.74 0 .11-.11.2-.18.29-.29.45-.54.9-.68 1.42-.02.09-.05.2-.05.29s.02.18.11.23c.04.05.09.05.16.05.11 0 .25-.09.36-.18.52-.38.9-.9 1.33-1.35.32-.36.65-.7.86-.99.02-.05.07-.09.11-.11.02 0 .04-.02.07-.02.09 0 .16.07.16.16-.02.14-.09.23-.16.31-.61.74-1.28 1.55-2.05 2.27-.16.16-.36.29-.59.36-.09.02-.18.04-.25.04-.32 0-.54-.2-.63-.54-.02-.16-.04-.29-.04-.45v-.16c-.47.34-.86.7-1.31.99zm-.11-.56c.74-.45 1.35-1.06 1.89-1.73.25-.29.41-.79.43-1.06-.77.16-2.68 2.18-2.81 3 .2-.02.34-.11.5-.2z" class="cls-1"/><path d="M7.7 11.17c.47-.34.86-.77 1.24-1.19.34-.36.68-.74.97-1.15.05-.04.07-.09.11-.14s.09-.09.16-.09c.02 0 .04 0 .07.02.05.02.07.07.07.11s-.02.09-.05.14c-.18.29-.38.54-.59.79-.52.63-1.06 1.22-1.64 1.78-.23.2-.45.36-.72.5-.11.04-.23.07-.32.07-.29 0-.47-.2-.47-.56v-.05c0-.29.11-.59.23-.86.11-.23.23-.45.32-.7.07-.14.13-.27.16-.43.02-.07.02-.11.02-.18 0-.11-.07-.18-.25-.23-.23-.07-.43-.14-.63-.2-.14-.04-.27-.11-.38-.2-.14-.14-.23-.32-.23-.47 0-.11.02-.23.09-.32.16-.31.41-.52.74-.63.07-.02.14-.04.18-.04.11 0 .23.04.34.16.07.09.09.18.09.27 0 .07-.02.16-.04.25-.02.07-.07.14-.11.2-.07.11-.11.18-.11.23 0 .07.07.09.25.13.52.16.74.41.74.81 0 .14-.02.32-.09.5-.16.41-.36.81-.52 1.19-.09.16-.16.32-.16.52v.07c.23-.05.38-.18.54-.29zm-.95-3.42s-.02-.04-.02-.07a.188.188 0 0 0-.11-.05c-.09 0-.2.07-.34.23-.04.07-.07.11-.07.16 0 .02.02.05.04.07.07.04.11.07.18.07.02 0 .07 0 .09-.02.13-.16.23-.29.23-.38z" class="cls-1"/><path d="M12.5 9.03s-.02.09-.07.14c-.2.2-.47.36-.77.36-.2 0-.32-.16-.32-.34v-.11c.07-.2.18-.38.27-.56.07-.09.16-.18.16-.29-.02-.02-.05-.02-.07-.02s-.07.02-.09.04c-.83.5-1.51 1.15-2 2-.09.18-.18.36-.2.56v.11c0 .2.09.29.29.29h.07c.32 0 .61-.11.88-.23.56-.25 1.08-.56 1.6-.9.72-.47 1.44-.95 1.89-1.35l.09-.09s.07-.02.11-.02c.02 0 .04 0 .07.02.04.02.07.07.07.11 0 .02-.02.04-.02.07-.04.11-.59.61-.92.83-.81.59-1.64 1.15-2.5 1.67-.27.16-.56.27-.83.38-.18.04-.36.09-.54.09h-.11c-.5-.02-.79-.36-.81-.83 0-.29.07-.54.2-.79.59-1.17 1.51-2.05 2.66-2.66.18-.09.36-.14.54-.14.16 0 .34.04.52.09.16.04.25.13.25.27 0 .09-.04.18-.11.27-.23.27-.43.54-.7.83h.25c.09.04.16.11.16.18z" class="cls-1"/><path d="M16.24 7.54c.11-.09.25-.16.41-.2.07-.02.16-.05.2-.05.27 0 .45.2.45.5v.09c-.02.27-.14.52-.25.77-.25.59-.52 1.17-.72 1.78-.05.2-.11.41-.14.63v.14s0 .09.07.11c.02 0 .02.02.04.02.07 0 .14-.04.18-.09.11-.09.25-.2.38-.31.65-.63 1.28-1.28 1.87-1.98.09-.11.18-.2.29-.32.04-.02.07-.04.11-.04s.07.02.11.04c.02.02.04.07.04.09 0 .05-.02.09-.04.14s-.07.09-.09.14c-.65.81-1.35 1.6-2.09 2.32-.18.18-.38.36-.63.47a.8.8 0 0 1-.31.07c-.29 0-.5-.2-.52-.56-.02-.09-.02-.2-.02-.29 0-.2.02-.41.09-.61.18-.59.43-1.15.68-1.71.07-.18.14-.36.23-.56h-.04c-.16 0-.23.07-.32.14-.65.5-1.24 1.04-1.78 1.64-.47.52-.92 1.06-1.31 1.64l-.02.02c-.14.16-.25.25-.38.25-.05 0-.09-.02-.14-.05a.332.332 0 0 1-.14-.27c0-.09.02-.18.09-.29.2-.34.41-.65.61-.95 1.17-1.73 2.39-3.47 3.6-5.16 1.13-1.58 2.27-3.11 3.42-4.64.09-.11.2-.23.29-.34.09-.07.16-.11.25-.11.07 0 .11.02.18.07.09.07.14.16.14.25 0 .07-.02.13-.05.18-.02.07-.07.14-.11.18-.45.45-.79.97-1.15 1.46-1.15 1.51-2.27 3.04-3.36 4.59-.36.5-.72 1.01-1.06 1.51.32-.23.61-.47.92-.7z" class="cls-1"/><path d="M18.15 10.09c.38-.88.97-1.62 1.58-2.36.04-.04.11-.11.18-.16.04-.02.09-.04.14-.04.09 0 .16.04.23.09.07.07.09.14.09.2 0 .05 0 .07-.02.11-.05.11-.14.23-.2.32-.38.47-.74.95-1.06 1.46-.16.27-.31.56-.41.88-.02.09-.07.18-.07.27 0 .07-.02.14-.02.2s.02.14.09.18c.04.02.09.05.14.05.11 0 .2-.07.29-.14.45-.32.83-.7 1.22-1.08l1.28-1.35s.05-.09.09-.11c.02-.02.07-.02.09-.02.04 0 .07 0 .11.04.02.02.04.07.04.09s-.02.05-.02.07c-.04.09-.09.16-.16.23-.65.74-1.31 1.51-2 2.21-.16.16-.36.32-.54.43-.14.09-.27.16-.43.2-.07.02-.14.02-.2.02-.32 0-.54-.16-.61-.52-.02-.11-.04-.23-.04-.29.02-.36.09-.68.23-.97zm2.43-2.86h-.07c-.16 0-.29-.11-.29-.32 0-.09.02-.18.07-.25.11-.25.27-.45.45-.63.09-.09.16-.14.27-.14.05 0 .07 0 .11.02.16.07.2.23.2.38 0 .29-.45.86-.74.92z" class="cls-1"/><path d="M21.95 10.7c.72-.68 1.33-1.42 1.89-2.21.09-.14.2-.27.29-.38.09-.09.18-.16.27-.16.04 0 .07 0 .11.02.11.04.14.16.14.25v.25c0 .25.07.27.36.32.11.02.2.02.32.02.27 0 .54-.04.81-.14.07-.02.14-.04.2-.04.05 0 .09.02.11.09.02.02.02.05.02.07 0 .11-.14.16-.23.2-.34.11-.68.18-1.01.18-.18 0-.36-.02-.54-.04-.07 0-.16-.05-.23-.09-.11-.07-.18-.11-.25-.11s-.11.07-.2.2c-.45.56-.88 1.1-1.33 1.64-.29.34-.59.65-.95.92-.11.09-.23.16-.36.23-.07.02-.16.02-.2.02-.27 0-.45-.16-.47-.47 0-.2.04-.38.11-.59.18-.54.38-1.08.59-1.6.09-.27.16-.52.25-.79.05-.11.07-.2.07-.32 0-.09-.02-.2-.09-.29-.02-.04-.02-.09-.02-.14 0-.11.04-.18.14-.25.07-.05.14-.07.2-.07.09 0 .18.02.25.09.14.13.2.29.2.47 0 .07 0 .14-.02.2-.09.52-.25.99-.43 1.46-.11.31-.25.65-.36.97-.04.11-.09.25-.11.41.2-.09.34-.23.47-.34z" class="cls-1"/><path d="M24.9 10.97s.02-.11.02-.16c.04-.29.13-.56.27-.81a6.105 6.105 0 0 1 2.5-2.41c.16-.09.34-.18.52-.2h.09c.29 0 .52.2.52.52v.04c-.07.54-.25 1.04-.68 1.42a.9.9 0 0 1-.34.2c-.16.07-.29.11-.41.11-.23 0-.41-.11-.61-.34-.07-.09-.11-.14-.16-.14s-.07.04-.16.14c-.34.34-.63.72-.81 1.17-.04.11-.11.23-.11.36 0 .07.02.16.09.23.09.11.18.13.29.13.09 0 .2-.02.29-.04.38-.09.74-.25 1.1-.45.92-.52 1.8-1.1 2.66-1.76.2-.14.27-.2.34-.27.04-.04.09-.09.16-.09.04 0 .07.02.11.04.05.04.07.07.07.11 0 .07-.05.11-.09.16l-.23.23c-1.01.81-2.07 1.51-3.15 2.16-.34.2-.7.36-1.08.43-.11.02-.23.05-.29.05-.54 0-.92-.34-.92-.83zm3.13-2.84s-.02.02-.04.02c-.34.16-.65.34-.9.63a.18.18 0 0 0-.04.09c0 .07.04.14.09.18.04.07.11.11.18.11.02 0 .07 0 .09-.02.36-.2.56-.52.7-.86 0-.09-.02-.16-.07-.16z" class="cls-1"/><path d="M32.04 11.17c.47-.34.86-.77 1.24-1.19.34-.36.68-.74.97-1.15.05-.04.07-.09.11-.14s.09-.09.16-.09c.02 0 .04 0 .07.02.04.02.07.07.07.11s-.02.09-.05.14c-.18.29-.38.54-.59.79-.52.63-1.06 1.22-1.64 1.78-.23.2-.45.36-.72.5-.11.04-.23.07-.32.07-.29 0-.47-.2-.47-.56v-.05c0-.29.11-.59.23-.86.11-.23.23-.45.32-.7.07-.14.13-.27.16-.43.02-.07.02-.11.02-.18 0-.11-.07-.18-.25-.23-.23-.07-.43-.14-.63-.2-.14-.04-.27-.11-.38-.2-.14-.14-.23-.32-.23-.47 0-.11.02-.23.09-.32.16-.31.41-.52.74-.63.07-.02.14-.04.18-.04.11 0 .23.04.34.16.07.09.09.18.09.27 0 .07-.02.16-.04.25-.02.07-.07.14-.11.2-.07.11-.11.18-.11.23 0 .07.07.09.25.13.52.16.74.41.74.81 0 .14-.02.32-.09.5-.16.41-.36.81-.52 1.19-.09.16-.16.32-.16.52v.07c.23-.05.38-.18.54-.29zm-.95-3.42s-.02-.04-.02-.07a.188.188 0 0 0-.11-.05c-.09 0-.2.07-.34.23-.04.07-.07.11-.07.16 0 .02.02.05.04.07.07.04.11.07.18.07.02 0 .07 0 .09-.02.13-.16.23-.29.23-.38z" class="cls-1"/><path d="M35.42 10.36c.59-.29 1.15-.65 1.67-1.04.27-.18.54-.38.68-.56.04-.07.11-.14.18-.14.02 0 .07.02.09.04.05.04.05.07.05.11s-.02.11-.07.16c-.09.13-.27.29-.47.45-.41.32-.83.63-1.28.9-.41.25-.81.47-1.22.7-.18.09-.25.2-.29.41-.11.79-.29 1.53-.68 2.23-.36.63-.81 1.13-1.55 1.31-.14.02-.25.04-.38.04-.36 0-.7-.14-1.01-.38-.34-.29-.52-.68-.52-1.1 0-.27.09-.56.25-.81.27-.43.65-.7 1.1-.9.36-.18.74-.29 1.13-.41.23-.07.45-.14.7-.23q.38-.14.41-.54c.07-.65.09-1.31.2-1.96.04-.2.11-.41.16-.61.07-.16.16-.32.29-.43.11-.09.25-.18.38-.18.04 0 .09.02.16.05.18.11.29.29.29.5v.07c-.04.29-.18.52-.41.68-.23.16-.32.38-.34.63-.02.41-.04.83-.07 1.28.25-.04.41-.18.56-.27zm-3.13 1.76c-.31.14-.61.32-.83.56-.18.23-.32.47-.32.74 0 .07 0 .14.02.2.07.47.5.77.97.77.09 0 .18-.02.29-.04.43-.11.7-.41.95-.77.29-.45.47-.99.61-1.51.02-.14.09-.29.09-.45 0-.04-.02-.07-.02-.11h-.11c-.54.2-1.1.38-1.64.61zm3.06-4.03c.02-.07.02-.11.02-.16 0-.07-.02-.11-.04-.11s-.07.02-.09.05c-.11.09-.2.29-.25.61.16 0 .27-.14.36-.38z" class="cls-1"/></g></svg>