<svg xmlns="http://www.w3.org/2000/svg" id="Layer_2" data-name="Layer 2" viewBox="0 0 54.79 11.38"><defs><style>.cls-1{fill:#fff}</style></defs><g id="Layer_1-2" data-name="Layer 1"><path d="M7.14.3 6.02 0l-.94 3.52L4.23.34l-1.12.3.92 3.43-2.29-2.29-.82.82 2.51 2.51L.3 4.27 0 5.39l3.42.92a2.322 2.322 0 0 1 2.26-2.85A2.322 2.322 0 0 1 7.94 6.3l3.11.83.3-1.12-3.43-.92 3.13-.84-.3-1.12-3.43.92 2.29-2.29-.82-.82-2.48 2.48.84-3.13z" class="cls-1"/><path d="M7.93 6.32c-.1.41-.3.77-.58 1.06L9.6 9.63l.82-.82-2.49-2.49zm-.6 1.09c-.28.29-.64.5-1.04.61l.82 3.06 1.12-.3-.9-3.37zm-1.08.62c-.18.05-.38.07-.58.07-.21 0-.42-.03-.62-.08l-.82 3.06 1.12.3.9-3.35zm-1.23-.02c-.39-.12-.74-.33-1.02-.62L1.74 9.65l.82.82 2.45-2.45zm-1.04-.64a2.28 2.28 0 0 1-.56-1.05L.3 7.16l.3 1.12 3.38-.91zm12.7-5.59h1.06v7.83h-1.06zm5.5 2.38c-.38 0-.72.08-1.03.25s-.55.41-.72.71l-.11-.81h-.92v5.3h1.02v-2.8c0-.52.13-.94.4-1.25.26-.31.63-.47 1.11-.47.39 0 .7.12.93.35.23.23.35.62.35 1.15V9.6h1.02V6.36c0-.68-.17-1.22-.5-1.61-.33-.4-.84-.6-1.54-.6zm4.94-1.5H26.1v1.65h-1.04v.86h1.04v4.44h1.02V5.17h1.04v-.86h-1.04V2.66zm5.18 6c-.25.16-.58.24-.97.24-.54 0-.96-.17-1.25-.51-.25-.29-.37-.71-.4-1.22h4.07v-.39c0-.53-.1-.99-.31-1.37-.21-.39-.49-.69-.87-.91-.37-.22-.81-.32-1.32-.32s-.96.12-1.35.36c-.39.24-.69.57-.91.98-.22.42-.33.91-.33 1.46s.11 1.03.34 1.45c.22.42.53.74.93.97.4.23.85.35 1.36.35.66 0 1.2-.16 1.62-.47.43-.31.7-.75.83-1.31h-.95c-.09.3-.26.53-.51.69zm-1.91-3.42c.24-.15.53-.22.87-.22.45 0 .8.13 1.07.4s.4.62.4 1.06h-3.05c.03-.21.08-.42.15-.59.13-.28.31-.5.55-.65zm6.99-1.03c-.41 0-.75.11-1.03.33-.21.17-.35.39-.44.64l-.07-.85h-.95v5.28h1.02v-2.8c0-.51.14-.91.42-1.19s.66-.42 1.14-.42h.45v-.93c-.1-.02-.19-.04-.28-.05a2.13 2.13 0 0 0-.27-.02zm1.51-2.57h1.02v7.97h-1.02zm2.51 2.67h1.02v5.3H41.4zm.5-2.59c-.18 0-.34.06-.47.19s-.2.29-.2.48.07.34.2.47.29.2.47.2.35-.07.48-.2.19-.29.19-.47-.07-.35-.19-.48a.648.648 0 0 0-.48-.19zm4.78 2.44c-.38 0-.72.08-1.03.25s-.55.41-.72.71l-.11-.81h-.92v5.3h1.02v-2.8c0-.52.13-.94.4-1.25.26-.31.63-.47 1.11-.47.39 0 .7.12.93.35.23.23.35.62.35 1.15V9.6h1.02V6.36c0-.68-.17-1.22-.5-1.61-.33-.4-.84-.6-1.54-.6zm8.11.15h-1.28l-2.35 2.5V1.64h-1.02v7.97h1.02V8.1l.9-.94 1.55 2.45h1.17l-2.02-3.18 2.03-2.12z" class="cls-1"/></g></svg>