<svg xmlns="http://www.w3.org/2000/svg" data-name="Layer 2" viewBox="0 0 41.4 6.77"><path fill="#fff" d="M6.57 0v6.77H4.96V4.05H1.6v2.72H0V0h1.6v2.72h3.36V0h1.61zm5.86 5.63H9.09l-.42 1.14H7.01L9.63 0h2.26l2.63 6.77h-1.67l-.42-1.14zm-.45-1.22-1.06-2.89h-.31L9.55 4.41h2.43zM13.1 0h1.66l1.98 5.24h.21L18.93 0h1.67l-2.63 6.77h-2.26L13.1 0zm7.7 0h1.66l1.98 5.24h.21L26.63 0h1.67l-2.63 6.77h-2.26L20.79 0zm11.5 5.63h-3.34l-.42 1.14h-1.66L29.5 0h2.26l2.63 6.77h-1.67l-.42-1.14zm-.45-1.22-1.06-2.89h-.31l-1.06 2.89h2.43zM41.4 0v6.77h-1.61V4.05h-3.36v2.72h-1.6V0h1.6v2.72h3.36V0h1.61z" data-name="Layer 1"/></svg>